M48
;GenerationSoftware,Autodesk,EAGLE,9.5.2*%
;CreationDate,2020-04-10T11:28:38Z*%
FMAT,2
ICI,OFF
METRIC,TZ,000.000
T9C0.350
T8C0.400
T7C0.600
T6C0.800
T5C0.813
T4C1.000
T3C1.016
T2C2.200
T1C3.200
%
G90
M71
T1
X78105Y5080
X135255Y5080
X78105Y97790
X135255Y97790
X20955Y5080
X20955Y97663
X211455Y97790
X211455Y5080
T2
X233680Y99060
X233680Y3810
X251460Y3810
X251460Y99060
T3
X242570Y99060
X242570Y96520
X240030Y99060
X240030Y96520
X245110Y99060
X245110Y96520
T4
X144780Y12700
X144780Y7620
X68580Y93980
X68580Y88900
X68580Y83820
X68580Y74930
X68580Y69850
X68580Y64770
X201930Y69850
X68580Y50800
X68580Y45720
X68580Y36830
X68580Y31750
X68580Y26670
X87630Y93980
X87630Y88900
X87630Y83820
X87630Y74930
X87630Y69850
X87630Y64770
X87630Y55880
X87630Y50800
X87630Y45720
X87630Y36830
X87630Y31750
X87630Y26670
X106680Y93980
X106680Y88900
X106680Y83820
X106680Y74930
X106680Y69850
X106680Y64770
X106680Y55880
X106680Y50800
X106680Y45720
X106680Y36830
X106680Y31750
X106680Y26670
X106680Y17780
X68580Y55880
X106680Y12700
X106680Y7620
X125730Y93980
X125730Y88900
X125730Y83820
X125730Y74930
X125730Y69850
X125730Y64770
X125730Y55880
X125730Y50800
X125730Y45720
X125730Y36830
X125730Y31750
X125730Y26670
X144780Y93980
X144780Y88900
X144780Y83820
X144780Y74930
X144780Y69850
X240665Y83820
X234265Y83820
X240665Y88900
X234265Y88900
X144780Y64770
X144780Y55880
X144780Y50800
X144780Y45720
X144780Y36830
X144780Y31750
X144780Y26670
X163830Y93980
X163830Y88900
X163830Y83820
X163830Y74930
X163830Y69850
X163830Y64770
X163830Y55880
X163830Y50800
X163830Y45720
X163830Y36830
X163830Y31750
X163830Y26670
X163830Y17780
X163830Y12700
X163830Y7620
X182880Y93980
X182880Y88900
X182880Y83820
X182880Y74930
X182880Y69850
X182880Y64770
X182880Y55880
X182880Y50800
X182880Y45720
X182880Y36830
X182880Y31750
X182880Y26670
X182880Y17780
X182880Y12700
X182880Y7620
X201930Y93980
X201930Y88900
X201930Y83820
X201930Y74930
X201930Y64770
X11430Y93980
X11430Y88900
X11430Y83820
X11430Y74930
X11430Y69850
X11430Y64770
X11430Y55880
X11430Y50800
X11430Y45720
X11430Y36830
X11430Y31750
X11430Y26670
X11430Y17780
X11430Y12700
X11430Y7620
X201930Y55880
X201930Y50800
X201930Y45720
X201930Y36830
X201930Y31750
X201930Y26670
X201930Y17780
X201930Y12700
X201930Y7620
X220980Y93980
X30480Y93980
X30480Y88900
X30480Y83820
X30480Y74930
X30480Y69850
X30480Y64770
X30480Y55880
X30480Y50800
X30480Y45720
X30480Y36830
X30480Y31750
X30480Y26670
X30480Y17780
X30480Y12700
X30480Y7620
X220980Y88900
X220980Y83820
X220980Y74930
X220980Y69850
X220980Y64770
X220980Y55880
X220980Y50800
X220980Y45720
X220980Y36830
X220980Y31750
X49530Y93980
X49530Y88900
X49530Y83820
X49530Y74930
X49530Y69850
X49530Y64770
X49530Y55880
X49530Y50800
X49530Y45720
X49530Y36830
X49530Y31750
X49530Y26670
X49530Y17780
X49530Y12700
X49530Y7620
X220980Y26670
X220980Y17780
X220980Y12700
X220980Y7620
X68580Y17780
X68580Y12700
X68580Y7620
X144780Y17780
T5
X250190Y10160
X234950Y30480
X234950Y27940
X234950Y25400
X234950Y22860
X234950Y20320
X234950Y17780
X234950Y15240
X234950Y12700
X234950Y10160
X234950Y7620
X250190Y7620
X230886Y26670
X232283Y36322
X232283Y33782
X252603Y30480
X252603Y33020
X243840Y73660
X246380Y73660
X232410Y31242
X229870Y31242
X232410Y17145
X229870Y17145
X240030Y72390
X232410Y72390
X240030Y74930
X232410Y74930
X250190Y12700
X250190Y15240
X250190Y17780
X250190Y20320
X250190Y22860
X250190Y25400
X250190Y27940
X250190Y30480
X250190Y33020
X250190Y35560
X250190Y38100
X250190Y40640
X250190Y43180
X250190Y45720
X250190Y48260
X250190Y50800
X250190Y53340
X250190Y55880
X230886Y21844
X243840Y59690
X243840Y69850
X248920Y69850
X248920Y59690
X246380Y59690
X246380Y69850
X233680Y59690
X233680Y69850
X236220Y59690
X236220Y69850
X238760Y59690
X238760Y69850
X234950Y55880
X234950Y53340
X234950Y50800
X234950Y48260
X234950Y45720
X234950Y43180
X234950Y40640
X234950Y38100
X234950Y35560
X234950Y33020
T6
X197612Y19177
X83312Y38227
X64262Y49657
X64262Y57277
X64262Y30607
X64262Y38227
X64262Y82677
X64262Y90297
X64262Y68707
X64262Y76327
X83312Y82677
X83312Y90297
X83312Y68707
X121412Y83947
X159512Y84836
X159512Y92456
X216662Y83693
X216662Y91313
X216662Y68707
X216662Y76327
X216662Y49657
X216662Y57277
X216662Y30607
X216662Y38227
X216662Y11557
X216662Y19177
X159512Y68707
X159512Y76327
X159512Y49657
X159512Y57277
X159512Y30607
X159512Y38227
X16002Y82677
X16002Y90297
X16002Y68707
X16002Y76327
X16002Y49657
X16002Y57277
X16002Y30607
X16002Y38227
X16002Y11557
X16002Y19177
X26162Y82677
X26162Y90297
X26162Y68707
X26162Y76327
X26162Y49657
X26162Y57277
X26162Y30607
X26162Y38227
X26162Y11557
X26162Y19177
X45212Y82677
X45212Y90297
X45212Y68707
X45212Y76327
X45212Y49657
X45212Y57277
X45212Y30607
X45212Y38227
X45212Y11557
X45212Y19177
X159512Y11557
X159512Y19177
X121412Y91567
X121412Y68707
X121412Y76327
X121412Y49657
X121412Y57277
X121412Y30607
X121412Y38227
X83312Y76327
X83312Y49657
X83312Y57277
X83312Y30607
X102362Y83947
X102362Y91567
X102362Y68707
X102362Y76327
X178562Y84836
X178562Y92456
X178562Y68707
X178562Y76327
X178562Y49657
X178562Y57277
X178562Y30607
X178562Y38227
X178562Y11557
X178562Y19177
X102362Y49657
X102362Y57277
X102362Y30607
X102362Y38227
X140462Y83820
X140462Y91440
X140462Y68707
X140462Y76327
X140462Y49657
X140462Y57277
X140462Y30607
X140462Y38227
X102362Y11557
X102362Y19177
X197612Y85217
X197612Y92837
X197612Y68707
X197612Y76327
X197612Y49657
X197612Y57277
X197612Y30607
X197612Y38227
X197612Y11557
T7
X250906Y78225
X250906Y86875
X247526Y86875
X247526Y78225
T8
X246546Y82975
X247896Y85525
X247896Y84675
X247896Y83825
X247896Y82975
X247896Y81275
X247896Y80425
X247896Y79575
X246546Y79575
X246546Y80425
X246546Y81275
X246546Y82125
X247896Y82125
X246546Y83825
X246546Y84675
X246546Y85525
T9
X242570Y48260
X242570Y45720
X242570Y8890
X242570Y55880
X234950Y60960
X244221Y82169
X245110Y82931
X182880Y85979
X201930Y86614
X222123Y87249
X253365Y41910
X242570Y53340
X242570Y50800
M30