G04 EAGLE Gerber RS-274X export*
G75*
%MOMM*%
%FSLAX34Y34*%
%LPD*%
%IN*%
%IPPOS*%
%AMOC8*
5,1,8,0,0,1.08239X$1,22.5*%
G01*
%ADD10C,0.254000*%


D10*
X0Y63500D02*
X242Y57966D01*
X965Y52473D01*
X2164Y47065D01*
X3830Y41782D01*
X5949Y36664D01*
X8507Y31750D01*
X11484Y27078D01*
X14856Y22683D01*
X18599Y18599D01*
X22683Y14856D01*
X27078Y11484D01*
X31750Y8507D01*
X36664Y5949D01*
X41782Y3830D01*
X47065Y2164D01*
X52473Y965D01*
X57966Y242D01*
X63500Y0D01*
X2514600Y0D01*
X2517921Y145D01*
X2521216Y579D01*
X2524461Y1298D01*
X2527631Y2298D01*
X2530702Y3570D01*
X2533650Y5104D01*
X2536453Y6890D01*
X2539090Y8914D01*
X2541541Y11159D01*
X2543786Y13610D01*
X2545810Y16247D01*
X2547596Y19050D01*
X2549130Y21998D01*
X2550402Y25069D01*
X2551402Y28239D01*
X2552121Y31484D01*
X2552555Y34779D01*
X2552700Y38100D01*
X2552700Y990600D01*
X2552555Y993921D01*
X2552121Y997216D01*
X2551402Y1000461D01*
X2550402Y1003631D01*
X2549130Y1006702D01*
X2547596Y1009650D01*
X2545810Y1012453D01*
X2543786Y1015090D01*
X2541541Y1017541D01*
X2539090Y1019786D01*
X2536453Y1021810D01*
X2533650Y1023596D01*
X2530702Y1025130D01*
X2527631Y1026402D01*
X2524461Y1027402D01*
X2521216Y1028121D01*
X2517921Y1028555D01*
X2514600Y1028700D01*
X63500Y1028700D01*
X57966Y1028458D01*
X52473Y1027735D01*
X47065Y1026536D01*
X41782Y1024870D01*
X36664Y1022751D01*
X31750Y1020193D01*
X27078Y1017216D01*
X22683Y1013844D01*
X18599Y1010101D01*
X14856Y1006017D01*
X11484Y1001622D01*
X8507Y996950D01*
X5949Y992036D01*
X3830Y986918D01*
X2164Y981635D01*
X965Y976227D01*
X242Y970734D01*
X0Y965200D01*
X0Y63500D01*
X2502060Y782250D02*
X2502071Y781989D01*
X2502106Y781729D01*
X2502162Y781474D01*
X2502241Y781224D01*
X2502341Y780982D01*
X2502462Y780750D01*
X2502603Y780529D01*
X2502762Y780322D01*
X2502939Y780129D01*
X2503132Y779952D01*
X2503339Y779793D01*
X2503560Y779652D01*
X2503792Y779531D01*
X2504034Y779431D01*
X2504284Y779352D01*
X2504539Y779296D01*
X2504799Y779261D01*
X2505060Y779250D01*
X2513060Y779250D01*
X2513321Y779261D01*
X2513581Y779296D01*
X2513836Y779352D01*
X2514086Y779431D01*
X2514328Y779531D01*
X2514560Y779652D01*
X2514781Y779793D01*
X2514988Y779952D01*
X2515181Y780129D01*
X2515358Y780322D01*
X2515517Y780529D01*
X2515658Y780750D01*
X2515779Y780982D01*
X2515879Y781224D01*
X2515958Y781474D01*
X2516014Y781729D01*
X2516049Y781989D01*
X2516060Y782250D01*
X2516049Y782511D01*
X2516014Y782771D01*
X2515958Y783026D01*
X2515879Y783276D01*
X2515779Y783518D01*
X2515658Y783750D01*
X2515517Y783971D01*
X2515358Y784178D01*
X2515181Y784371D01*
X2514988Y784548D01*
X2514781Y784707D01*
X2514560Y784848D01*
X2514328Y784969D01*
X2514086Y785069D01*
X2513836Y785148D01*
X2513581Y785204D01*
X2513321Y785239D01*
X2513060Y785250D01*
X2505060Y785250D01*
X2504799Y785239D01*
X2504539Y785204D01*
X2504284Y785148D01*
X2504034Y785069D01*
X2503792Y784969D01*
X2503560Y784848D01*
X2503339Y784707D01*
X2503132Y784548D01*
X2502939Y784371D01*
X2502762Y784178D01*
X2502603Y783971D01*
X2502462Y783750D01*
X2502341Y783518D01*
X2502241Y783276D01*
X2502162Y783026D01*
X2502106Y782771D01*
X2502071Y782511D01*
X2502060Y782250D01*
X2502060Y868750D02*
X2502071Y868489D01*
X2502106Y868229D01*
X2502162Y867974D01*
X2502241Y867724D01*
X2502341Y867482D01*
X2502462Y867250D01*
X2502603Y867029D01*
X2502762Y866822D01*
X2502939Y866629D01*
X2503132Y866452D01*
X2503339Y866293D01*
X2503560Y866152D01*
X2503792Y866031D01*
X2504034Y865931D01*
X2504284Y865852D01*
X2504539Y865796D01*
X2504799Y865761D01*
X2505060Y865750D01*
X2513060Y865750D01*
X2513321Y865761D01*
X2513581Y865796D01*
X2513836Y865852D01*
X2514086Y865931D01*
X2514328Y866031D01*
X2514560Y866152D01*
X2514781Y866293D01*
X2514988Y866452D01*
X2515181Y866629D01*
X2515358Y866822D01*
X2515517Y867029D01*
X2515658Y867250D01*
X2515779Y867482D01*
X2515879Y867724D01*
X2515958Y867974D01*
X2516014Y868229D01*
X2516049Y868489D01*
X2516060Y868750D01*
X2516049Y869011D01*
X2516014Y869271D01*
X2515958Y869526D01*
X2515879Y869776D01*
X2515779Y870018D01*
X2515658Y870250D01*
X2515517Y870471D01*
X2515358Y870678D01*
X2515181Y870871D01*
X2514988Y871048D01*
X2514781Y871207D01*
X2514560Y871348D01*
X2514328Y871469D01*
X2514086Y871569D01*
X2513836Y871648D01*
X2513581Y871704D01*
X2513321Y871739D01*
X2513060Y871750D01*
X2505060Y871750D01*
X2504799Y871739D01*
X2504539Y871704D01*
X2504284Y871648D01*
X2504034Y871569D01*
X2503792Y871469D01*
X2503560Y871348D01*
X2503339Y871207D01*
X2503132Y871048D01*
X2502939Y870871D01*
X2502762Y870678D01*
X2502603Y870471D01*
X2502462Y870250D01*
X2502341Y870018D01*
X2502241Y869776D01*
X2502162Y869526D01*
X2502106Y869271D01*
X2502071Y869011D01*
X2502060Y868750D01*
X2464760Y782250D02*
X2464771Y781989D01*
X2464806Y781729D01*
X2464862Y781474D01*
X2464941Y781224D01*
X2465041Y780982D01*
X2465162Y780750D01*
X2465303Y780529D01*
X2465462Y780322D01*
X2465639Y780129D01*
X2465832Y779952D01*
X2466039Y779793D01*
X2466260Y779652D01*
X2466492Y779531D01*
X2466734Y779431D01*
X2466984Y779352D01*
X2467239Y779296D01*
X2467499Y779261D01*
X2467760Y779250D01*
X2482760Y779250D01*
X2483021Y779261D01*
X2483281Y779296D01*
X2483536Y779352D01*
X2483786Y779431D01*
X2484028Y779531D01*
X2484260Y779652D01*
X2484481Y779793D01*
X2484688Y779952D01*
X2484881Y780129D01*
X2485058Y780322D01*
X2485217Y780529D01*
X2485358Y780750D01*
X2485479Y780982D01*
X2485579Y781224D01*
X2485658Y781474D01*
X2485714Y781729D01*
X2485749Y781989D01*
X2485760Y782250D01*
X2485749Y782511D01*
X2485714Y782771D01*
X2485658Y783026D01*
X2485579Y783276D01*
X2485479Y783518D01*
X2485358Y783750D01*
X2485217Y783971D01*
X2485058Y784178D01*
X2484881Y784371D01*
X2484688Y784548D01*
X2484481Y784707D01*
X2484260Y784848D01*
X2484028Y784969D01*
X2483786Y785069D01*
X2483536Y785148D01*
X2483281Y785204D01*
X2483021Y785239D01*
X2482760Y785250D01*
X2467760Y785250D01*
X2467499Y785239D01*
X2467239Y785204D01*
X2466984Y785148D01*
X2466734Y785069D01*
X2466492Y784969D01*
X2466260Y784848D01*
X2466039Y784707D01*
X2465832Y784548D01*
X2465639Y784371D01*
X2465462Y784178D01*
X2465303Y783971D01*
X2465162Y783750D01*
X2465041Y783518D01*
X2464941Y783276D01*
X2464862Y783026D01*
X2464806Y782771D01*
X2464771Y782511D01*
X2464760Y782250D01*
X2464760Y868750D02*
X2464771Y868489D01*
X2464806Y868229D01*
X2464862Y867974D01*
X2464941Y867724D01*
X2465041Y867482D01*
X2465162Y867250D01*
X2465303Y867029D01*
X2465462Y866822D01*
X2465639Y866629D01*
X2465832Y866452D01*
X2466039Y866293D01*
X2466260Y866152D01*
X2466492Y866031D01*
X2466734Y865931D01*
X2466984Y865852D01*
X2467239Y865796D01*
X2467499Y865761D01*
X2467760Y865750D01*
X2482760Y865750D01*
X2483021Y865761D01*
X2483281Y865796D01*
X2483536Y865852D01*
X2483786Y865931D01*
X2484028Y866031D01*
X2484260Y866152D01*
X2484481Y866293D01*
X2484688Y866452D01*
X2484881Y866629D01*
X2485058Y866822D01*
X2485217Y867029D01*
X2485358Y867250D01*
X2485479Y867482D01*
X2485579Y867724D01*
X2485658Y867974D01*
X2485714Y868229D01*
X2485749Y868489D01*
X2485760Y868750D01*
X2485749Y869011D01*
X2485714Y869271D01*
X2485658Y869526D01*
X2485579Y869776D01*
X2485479Y870018D01*
X2485358Y870250D01*
X2485217Y870471D01*
X2485058Y870678D01*
X2484881Y870871D01*
X2484688Y871048D01*
X2484481Y871207D01*
X2484260Y871348D01*
X2484028Y871469D01*
X2483786Y871569D01*
X2483536Y871648D01*
X2483281Y871704D01*
X2483021Y871739D01*
X2482760Y871750D01*
X2467760Y871750D01*
X2467499Y871739D01*
X2467239Y871704D01*
X2466984Y871648D01*
X2466734Y871569D01*
X2466492Y871469D01*
X2466260Y871348D01*
X2466039Y871207D01*
X2465832Y871048D01*
X2465639Y870871D01*
X2465462Y870678D01*
X2465303Y870471D01*
X2465162Y870250D01*
X2465041Y870018D01*
X2464941Y869776D01*
X2464862Y869526D01*
X2464806Y869271D01*
X2464771Y869011D01*
X2464760Y868750D01*
X225550Y50276D02*
X225482Y49231D01*
X225345Y48192D01*
X225140Y47165D01*
X224869Y46153D01*
X224533Y45161D01*
X224132Y44193D01*
X223668Y43254D01*
X223145Y42346D01*
X222563Y41475D01*
X221925Y40644D01*
X221234Y39857D01*
X220493Y39116D01*
X219706Y38425D01*
X218875Y37788D01*
X218004Y37206D01*
X217096Y36682D01*
X216157Y36218D01*
X215189Y35817D01*
X214197Y35481D01*
X213185Y35210D01*
X212158Y35005D01*
X211119Y34869D01*
X210074Y34800D01*
X209026Y34800D01*
X207981Y34869D01*
X206942Y35005D01*
X205915Y35210D01*
X204903Y35481D01*
X203911Y35817D01*
X202943Y36218D01*
X202004Y36682D01*
X201096Y37206D01*
X200225Y37788D01*
X199394Y38425D01*
X198607Y39116D01*
X197866Y39857D01*
X197175Y40644D01*
X196538Y41475D01*
X195956Y42346D01*
X195432Y43254D01*
X194968Y44193D01*
X194567Y45161D01*
X194231Y46153D01*
X193960Y47165D01*
X193755Y48192D01*
X193619Y49231D01*
X193550Y50276D01*
X193550Y51324D01*
X193619Y52369D01*
X193755Y53408D01*
X193960Y54435D01*
X194231Y55447D01*
X194567Y56439D01*
X194968Y57407D01*
X195432Y58346D01*
X195956Y59254D01*
X196538Y60125D01*
X197175Y60956D01*
X197866Y61743D01*
X198607Y62484D01*
X199394Y63175D01*
X200225Y63813D01*
X201096Y64395D01*
X202004Y64918D01*
X202943Y65382D01*
X203911Y65783D01*
X204903Y66119D01*
X205915Y66390D01*
X206942Y66595D01*
X207981Y66732D01*
X209026Y66800D01*
X210074Y66800D01*
X211119Y66732D01*
X212158Y66595D01*
X213185Y66390D01*
X214197Y66119D01*
X215189Y65783D01*
X216157Y65382D01*
X217096Y64918D01*
X218004Y64395D01*
X218875Y63813D01*
X219706Y63175D01*
X220493Y62484D01*
X221234Y61743D01*
X221925Y60956D01*
X222563Y60125D01*
X223145Y59254D01*
X223668Y58346D01*
X224132Y57407D01*
X224533Y56439D01*
X224869Y55447D01*
X225140Y54435D01*
X225345Y53408D01*
X225482Y52369D01*
X225550Y51324D01*
X225550Y50276D01*
X225550Y976106D02*
X225482Y975061D01*
X225345Y974022D01*
X225140Y972995D01*
X224869Y971983D01*
X224533Y970991D01*
X224132Y970023D01*
X223668Y969084D01*
X223145Y968176D01*
X222563Y967305D01*
X221925Y966474D01*
X221234Y965687D01*
X220493Y964946D01*
X219706Y964255D01*
X218875Y963618D01*
X218004Y963036D01*
X217096Y962512D01*
X216157Y962048D01*
X215189Y961647D01*
X214197Y961311D01*
X213185Y961040D01*
X212158Y960835D01*
X211119Y960699D01*
X210074Y960630D01*
X209026Y960630D01*
X207981Y960699D01*
X206942Y960835D01*
X205915Y961040D01*
X204903Y961311D01*
X203911Y961647D01*
X202943Y962048D01*
X202004Y962512D01*
X201096Y963036D01*
X200225Y963618D01*
X199394Y964255D01*
X198607Y964946D01*
X197866Y965687D01*
X197175Y966474D01*
X196538Y967305D01*
X195956Y968176D01*
X195432Y969084D01*
X194968Y970023D01*
X194567Y970991D01*
X194231Y971983D01*
X193960Y972995D01*
X193755Y974022D01*
X193619Y975061D01*
X193550Y976106D01*
X193550Y977154D01*
X193619Y978199D01*
X193755Y979238D01*
X193960Y980265D01*
X194231Y981277D01*
X194567Y982269D01*
X194968Y983237D01*
X195432Y984176D01*
X195956Y985084D01*
X196538Y985955D01*
X197175Y986786D01*
X197866Y987573D01*
X198607Y988314D01*
X199394Y989005D01*
X200225Y989643D01*
X201096Y990225D01*
X202004Y990748D01*
X202943Y991212D01*
X203911Y991613D01*
X204903Y991949D01*
X205915Y992220D01*
X206942Y992425D01*
X207981Y992562D01*
X209026Y992630D01*
X210074Y992630D01*
X211119Y992562D01*
X212158Y992425D01*
X213185Y992220D01*
X214197Y991949D01*
X215189Y991613D01*
X216157Y991212D01*
X217096Y990748D01*
X218004Y990225D01*
X218875Y989643D01*
X219706Y989005D01*
X220493Y988314D01*
X221234Y987573D01*
X221925Y986786D01*
X222563Y985955D01*
X223145Y985084D01*
X223668Y984176D01*
X224132Y983237D01*
X224533Y982269D01*
X224869Y981277D01*
X225140Y980265D01*
X225345Y979238D01*
X225482Y978199D01*
X225550Y977154D01*
X225550Y976106D01*
X2130550Y977376D02*
X2130482Y976331D01*
X2130345Y975292D01*
X2130140Y974265D01*
X2129869Y973253D01*
X2129533Y972261D01*
X2129132Y971293D01*
X2128668Y970354D01*
X2128145Y969446D01*
X2127563Y968575D01*
X2126925Y967744D01*
X2126234Y966957D01*
X2125493Y966216D01*
X2124706Y965525D01*
X2123875Y964888D01*
X2123004Y964306D01*
X2122096Y963782D01*
X2121157Y963318D01*
X2120189Y962917D01*
X2119197Y962581D01*
X2118185Y962310D01*
X2117158Y962105D01*
X2116119Y961969D01*
X2115074Y961900D01*
X2114026Y961900D01*
X2112981Y961969D01*
X2111942Y962105D01*
X2110915Y962310D01*
X2109903Y962581D01*
X2108911Y962917D01*
X2107943Y963318D01*
X2107004Y963782D01*
X2106096Y964306D01*
X2105225Y964888D01*
X2104394Y965525D01*
X2103607Y966216D01*
X2102866Y966957D01*
X2102175Y967744D01*
X2101538Y968575D01*
X2100956Y969446D01*
X2100432Y970354D01*
X2099968Y971293D01*
X2099567Y972261D01*
X2099231Y973253D01*
X2098960Y974265D01*
X2098755Y975292D01*
X2098619Y976331D01*
X2098550Y977376D01*
X2098550Y978424D01*
X2098619Y979469D01*
X2098755Y980508D01*
X2098960Y981535D01*
X2099231Y982547D01*
X2099567Y983539D01*
X2099968Y984507D01*
X2100432Y985446D01*
X2100956Y986354D01*
X2101538Y987225D01*
X2102175Y988056D01*
X2102866Y988843D01*
X2103607Y989584D01*
X2104394Y990275D01*
X2105225Y990913D01*
X2106096Y991495D01*
X2107004Y992018D01*
X2107943Y992482D01*
X2108911Y992883D01*
X2109903Y993219D01*
X2110915Y993490D01*
X2111942Y993695D01*
X2112981Y993832D01*
X2114026Y993900D01*
X2115074Y993900D01*
X2116119Y993832D01*
X2117158Y993695D01*
X2118185Y993490D01*
X2119197Y993219D01*
X2120189Y992883D01*
X2121157Y992482D01*
X2122096Y992018D01*
X2123004Y991495D01*
X2123875Y990913D01*
X2124706Y990275D01*
X2125493Y989584D01*
X2126234Y988843D01*
X2126925Y988056D01*
X2127563Y987225D01*
X2128145Y986354D01*
X2128668Y985446D01*
X2129132Y984507D01*
X2129533Y983539D01*
X2129869Y982547D01*
X2130140Y981535D01*
X2130345Y980508D01*
X2130482Y979469D01*
X2130550Y978424D01*
X2130550Y977376D01*
X2130550Y50276D02*
X2130482Y49231D01*
X2130345Y48192D01*
X2130140Y47165D01*
X2129869Y46153D01*
X2129533Y45161D01*
X2129132Y44193D01*
X2128668Y43254D01*
X2128145Y42346D01*
X2127563Y41475D01*
X2126925Y40644D01*
X2126234Y39857D01*
X2125493Y39116D01*
X2124706Y38425D01*
X2123875Y37788D01*
X2123004Y37206D01*
X2122096Y36682D01*
X2121157Y36218D01*
X2120189Y35817D01*
X2119197Y35481D01*
X2118185Y35210D01*
X2117158Y35005D01*
X2116119Y34869D01*
X2115074Y34800D01*
X2114026Y34800D01*
X2112981Y34869D01*
X2111942Y35005D01*
X2110915Y35210D01*
X2109903Y35481D01*
X2108911Y35817D01*
X2107943Y36218D01*
X2107004Y36682D01*
X2106096Y37206D01*
X2105225Y37788D01*
X2104394Y38425D01*
X2103607Y39116D01*
X2102866Y39857D01*
X2102175Y40644D01*
X2101538Y41475D01*
X2100956Y42346D01*
X2100432Y43254D01*
X2099968Y44193D01*
X2099567Y45161D01*
X2099231Y46153D01*
X2098960Y47165D01*
X2098755Y48192D01*
X2098619Y49231D01*
X2098550Y50276D01*
X2098550Y51324D01*
X2098619Y52369D01*
X2098755Y53408D01*
X2098960Y54435D01*
X2099231Y55447D01*
X2099567Y56439D01*
X2099968Y57407D01*
X2100432Y58346D01*
X2100956Y59254D01*
X2101538Y60125D01*
X2102175Y60956D01*
X2102866Y61743D01*
X2103607Y62484D01*
X2104394Y63175D01*
X2105225Y63813D01*
X2106096Y64395D01*
X2107004Y64918D01*
X2107943Y65382D01*
X2108911Y65783D01*
X2109903Y66119D01*
X2110915Y66390D01*
X2111942Y66595D01*
X2112981Y66732D01*
X2114026Y66800D01*
X2115074Y66800D01*
X2116119Y66732D01*
X2117158Y66595D01*
X2118185Y66390D01*
X2119197Y66119D01*
X2120189Y65783D01*
X2121157Y65382D01*
X2122096Y64918D01*
X2123004Y64395D01*
X2123875Y63813D01*
X2124706Y63175D01*
X2125493Y62484D01*
X2126234Y61743D01*
X2126925Y60956D01*
X2127563Y60125D01*
X2128145Y59254D01*
X2128668Y58346D01*
X2129132Y57407D01*
X2129533Y56439D01*
X2129869Y55447D01*
X2130140Y54435D01*
X2130345Y53408D01*
X2130482Y52369D01*
X2130550Y51324D01*
X2130550Y50276D01*
X2525600Y990168D02*
X2525532Y989306D01*
X2525397Y988452D01*
X2525195Y987612D01*
X2524928Y986790D01*
X2524597Y985991D01*
X2524205Y985221D01*
X2523753Y984484D01*
X2523245Y983785D01*
X2522684Y983127D01*
X2522073Y982516D01*
X2521415Y981955D01*
X2520716Y981447D01*
X2519979Y980995D01*
X2519209Y980603D01*
X2518410Y980272D01*
X2517588Y980005D01*
X2516748Y979803D01*
X2515894Y979668D01*
X2515032Y979600D01*
X2514168Y979600D01*
X2513306Y979668D01*
X2512452Y979803D01*
X2511612Y980005D01*
X2510790Y980272D01*
X2509991Y980603D01*
X2509221Y980995D01*
X2508484Y981447D01*
X2507785Y981955D01*
X2507127Y982516D01*
X2506516Y983127D01*
X2505955Y983785D01*
X2505447Y984484D01*
X2504995Y985221D01*
X2504603Y985991D01*
X2504272Y986790D01*
X2504005Y987612D01*
X2503803Y988452D01*
X2503668Y989306D01*
X2503600Y990168D01*
X2503600Y991032D01*
X2503668Y991894D01*
X2503803Y992748D01*
X2504005Y993588D01*
X2504272Y994410D01*
X2504603Y995209D01*
X2504995Y995979D01*
X2505447Y996716D01*
X2505955Y997415D01*
X2506516Y998073D01*
X2507127Y998684D01*
X2507785Y999245D01*
X2508484Y999753D01*
X2509221Y1000205D01*
X2509991Y1000597D01*
X2510790Y1000928D01*
X2511612Y1001195D01*
X2512452Y1001397D01*
X2513306Y1001532D01*
X2514168Y1001600D01*
X2515032Y1001600D01*
X2515894Y1001532D01*
X2516748Y1001397D01*
X2517588Y1001195D01*
X2518410Y1000928D01*
X2519209Y1000597D01*
X2519979Y1000205D01*
X2520716Y999753D01*
X2521415Y999245D01*
X2522073Y998684D01*
X2522684Y998073D01*
X2523245Y997415D01*
X2523753Y996716D01*
X2524205Y995979D01*
X2524597Y995209D01*
X2524928Y994410D01*
X2525195Y993588D01*
X2525397Y992748D01*
X2525532Y991894D01*
X2525600Y991032D01*
X2525600Y990168D01*
X2347800Y990168D02*
X2347732Y989306D01*
X2347597Y988452D01*
X2347395Y987612D01*
X2347128Y986790D01*
X2346797Y985991D01*
X2346405Y985221D01*
X2345953Y984484D01*
X2345445Y983785D01*
X2344884Y983127D01*
X2344273Y982516D01*
X2343615Y981955D01*
X2342916Y981447D01*
X2342179Y980995D01*
X2341409Y980603D01*
X2340610Y980272D01*
X2339788Y980005D01*
X2338948Y979803D01*
X2338094Y979668D01*
X2337232Y979600D01*
X2336368Y979600D01*
X2335506Y979668D01*
X2334652Y979803D01*
X2333812Y980005D01*
X2332990Y980272D01*
X2332191Y980603D01*
X2331421Y980995D01*
X2330684Y981447D01*
X2329985Y981955D01*
X2329327Y982516D01*
X2328716Y983127D01*
X2328155Y983785D01*
X2327647Y984484D01*
X2327195Y985221D01*
X2326803Y985991D01*
X2326472Y986790D01*
X2326205Y987612D01*
X2326003Y988452D01*
X2325868Y989306D01*
X2325800Y990168D01*
X2325800Y991032D01*
X2325868Y991894D01*
X2326003Y992748D01*
X2326205Y993588D01*
X2326472Y994410D01*
X2326803Y995209D01*
X2327195Y995979D01*
X2327647Y996716D01*
X2328155Y997415D01*
X2328716Y998073D01*
X2329327Y998684D01*
X2329985Y999245D01*
X2330684Y999753D01*
X2331421Y1000205D01*
X2332191Y1000597D01*
X2332990Y1000928D01*
X2333812Y1001195D01*
X2334652Y1001397D01*
X2335506Y1001532D01*
X2336368Y1001600D01*
X2337232Y1001600D01*
X2338094Y1001532D01*
X2338948Y1001397D01*
X2339788Y1001195D01*
X2340610Y1000928D01*
X2341409Y1000597D01*
X2342179Y1000205D01*
X2342916Y999753D01*
X2343615Y999245D01*
X2344273Y998684D01*
X2344884Y998073D01*
X2345445Y997415D01*
X2345953Y996716D01*
X2346405Y995979D01*
X2346797Y995209D01*
X2347128Y994410D01*
X2347395Y993588D01*
X2347597Y992748D01*
X2347732Y991894D01*
X2347800Y991032D01*
X2347800Y990168D01*
X2347800Y37668D02*
X2347732Y36806D01*
X2347597Y35952D01*
X2347395Y35112D01*
X2347128Y34290D01*
X2346797Y33491D01*
X2346405Y32721D01*
X2345953Y31984D01*
X2345445Y31285D01*
X2344884Y30627D01*
X2344273Y30016D01*
X2343615Y29455D01*
X2342916Y28947D01*
X2342179Y28495D01*
X2341409Y28103D01*
X2340610Y27772D01*
X2339788Y27505D01*
X2338948Y27303D01*
X2338094Y27168D01*
X2337232Y27100D01*
X2336368Y27100D01*
X2335506Y27168D01*
X2334652Y27303D01*
X2333812Y27505D01*
X2332990Y27772D01*
X2332191Y28103D01*
X2331421Y28495D01*
X2330684Y28947D01*
X2329985Y29455D01*
X2329327Y30016D01*
X2328716Y30627D01*
X2328155Y31285D01*
X2327647Y31984D01*
X2327195Y32721D01*
X2326803Y33491D01*
X2326472Y34290D01*
X2326205Y35112D01*
X2326003Y35952D01*
X2325868Y36806D01*
X2325800Y37668D01*
X2325800Y38532D01*
X2325868Y39394D01*
X2326003Y40248D01*
X2326205Y41088D01*
X2326472Y41910D01*
X2326803Y42709D01*
X2327195Y43479D01*
X2327647Y44216D01*
X2328155Y44915D01*
X2328716Y45573D01*
X2329327Y46184D01*
X2329985Y46745D01*
X2330684Y47253D01*
X2331421Y47705D01*
X2332191Y48097D01*
X2332990Y48428D01*
X2333812Y48695D01*
X2334652Y48897D01*
X2335506Y49032D01*
X2336368Y49100D01*
X2337232Y49100D01*
X2338094Y49032D01*
X2338948Y48897D01*
X2339788Y48695D01*
X2340610Y48428D01*
X2341409Y48097D01*
X2342179Y47705D01*
X2342916Y47253D01*
X2343615Y46745D01*
X2344273Y46184D01*
X2344884Y45573D01*
X2345445Y44915D01*
X2345953Y44216D01*
X2346405Y43479D01*
X2346797Y42709D01*
X2347128Y41910D01*
X2347395Y41088D01*
X2347597Y40248D01*
X2347732Y39394D01*
X2347800Y38532D01*
X2347800Y37668D01*
X2525600Y37668D02*
X2525532Y36806D01*
X2525397Y35952D01*
X2525195Y35112D01*
X2524928Y34290D01*
X2524597Y33491D01*
X2524205Y32721D01*
X2523753Y31984D01*
X2523245Y31285D01*
X2522684Y30627D01*
X2522073Y30016D01*
X2521415Y29455D01*
X2520716Y28947D01*
X2519979Y28495D01*
X2519209Y28103D01*
X2518410Y27772D01*
X2517588Y27505D01*
X2516748Y27303D01*
X2515894Y27168D01*
X2515032Y27100D01*
X2514168Y27100D01*
X2513306Y27168D01*
X2512452Y27303D01*
X2511612Y27505D01*
X2510790Y27772D01*
X2509991Y28103D01*
X2509221Y28495D01*
X2508484Y28947D01*
X2507785Y29455D01*
X2507127Y30016D01*
X2506516Y30627D01*
X2505955Y31285D01*
X2505447Y31984D01*
X2504995Y32721D01*
X2504603Y33491D01*
X2504272Y34290D01*
X2504005Y35112D01*
X2503803Y35952D01*
X2503668Y36806D01*
X2503600Y37668D01*
X2503600Y38532D01*
X2503668Y39394D01*
X2503803Y40248D01*
X2504005Y41088D01*
X2504272Y41910D01*
X2504603Y42709D01*
X2504995Y43479D01*
X2505447Y44216D01*
X2505955Y44915D01*
X2506516Y45573D01*
X2507127Y46184D01*
X2507785Y46745D01*
X2508484Y47253D01*
X2509221Y47705D01*
X2509991Y48097D01*
X2510790Y48428D01*
X2511612Y48695D01*
X2512452Y48897D01*
X2513306Y49032D01*
X2514168Y49100D01*
X2515032Y49100D01*
X2515894Y49032D01*
X2516748Y48897D01*
X2517588Y48695D01*
X2518410Y48428D01*
X2519209Y48097D01*
X2519979Y47705D01*
X2520716Y47253D01*
X2521415Y46745D01*
X2522073Y46184D01*
X2522684Y45573D01*
X2523245Y44915D01*
X2523753Y44216D01*
X2524205Y43479D01*
X2524597Y42709D01*
X2524928Y41910D01*
X2525195Y41088D01*
X2525397Y40248D01*
X2525532Y39394D01*
X2525600Y38532D01*
X2525600Y37668D01*
X797050Y50276D02*
X796982Y49231D01*
X796845Y48192D01*
X796640Y47165D01*
X796369Y46153D01*
X796033Y45161D01*
X795632Y44193D01*
X795168Y43254D01*
X794645Y42346D01*
X794063Y41475D01*
X793425Y40644D01*
X792734Y39857D01*
X791993Y39116D01*
X791206Y38425D01*
X790375Y37788D01*
X789504Y37206D01*
X788596Y36682D01*
X787657Y36218D01*
X786689Y35817D01*
X785697Y35481D01*
X784685Y35210D01*
X783658Y35005D01*
X782619Y34869D01*
X781574Y34800D01*
X780526Y34800D01*
X779481Y34869D01*
X778442Y35005D01*
X777415Y35210D01*
X776403Y35481D01*
X775411Y35817D01*
X774443Y36218D01*
X773504Y36682D01*
X772596Y37206D01*
X771725Y37788D01*
X770894Y38425D01*
X770107Y39116D01*
X769366Y39857D01*
X768675Y40644D01*
X768038Y41475D01*
X767456Y42346D01*
X766932Y43254D01*
X766468Y44193D01*
X766067Y45161D01*
X765731Y46153D01*
X765460Y47165D01*
X765255Y48192D01*
X765119Y49231D01*
X765050Y50276D01*
X765050Y51324D01*
X765119Y52369D01*
X765255Y53408D01*
X765460Y54435D01*
X765731Y55447D01*
X766067Y56439D01*
X766468Y57407D01*
X766932Y58346D01*
X767456Y59254D01*
X768038Y60125D01*
X768675Y60956D01*
X769366Y61743D01*
X770107Y62484D01*
X770894Y63175D01*
X771725Y63813D01*
X772596Y64395D01*
X773504Y64918D01*
X774443Y65382D01*
X775411Y65783D01*
X776403Y66119D01*
X777415Y66390D01*
X778442Y66595D01*
X779481Y66732D01*
X780526Y66800D01*
X781574Y66800D01*
X782619Y66732D01*
X783658Y66595D01*
X784685Y66390D01*
X785697Y66119D01*
X786689Y65783D01*
X787657Y65382D01*
X788596Y64918D01*
X789504Y64395D01*
X790375Y63813D01*
X791206Y63175D01*
X791993Y62484D01*
X792734Y61743D01*
X793425Y60956D01*
X794063Y60125D01*
X794645Y59254D01*
X795168Y58346D01*
X795632Y57407D01*
X796033Y56439D01*
X796369Y55447D01*
X796640Y54435D01*
X796845Y53408D01*
X796982Y52369D01*
X797050Y51324D01*
X797050Y50276D01*
X1368550Y50276D02*
X1368482Y49231D01*
X1368345Y48192D01*
X1368140Y47165D01*
X1367869Y46153D01*
X1367533Y45161D01*
X1367132Y44193D01*
X1366668Y43254D01*
X1366145Y42346D01*
X1365563Y41475D01*
X1364925Y40644D01*
X1364234Y39857D01*
X1363493Y39116D01*
X1362706Y38425D01*
X1361875Y37788D01*
X1361004Y37206D01*
X1360096Y36682D01*
X1359157Y36218D01*
X1358189Y35817D01*
X1357197Y35481D01*
X1356185Y35210D01*
X1355158Y35005D01*
X1354119Y34869D01*
X1353074Y34800D01*
X1352026Y34800D01*
X1350981Y34869D01*
X1349942Y35005D01*
X1348915Y35210D01*
X1347903Y35481D01*
X1346911Y35817D01*
X1345943Y36218D01*
X1345004Y36682D01*
X1344096Y37206D01*
X1343225Y37788D01*
X1342394Y38425D01*
X1341607Y39116D01*
X1340866Y39857D01*
X1340175Y40644D01*
X1339538Y41475D01*
X1338956Y42346D01*
X1338432Y43254D01*
X1337968Y44193D01*
X1337567Y45161D01*
X1337231Y46153D01*
X1336960Y47165D01*
X1336755Y48192D01*
X1336619Y49231D01*
X1336550Y50276D01*
X1336550Y51324D01*
X1336619Y52369D01*
X1336755Y53408D01*
X1336960Y54435D01*
X1337231Y55447D01*
X1337567Y56439D01*
X1337968Y57407D01*
X1338432Y58346D01*
X1338956Y59254D01*
X1339538Y60125D01*
X1340175Y60956D01*
X1340866Y61743D01*
X1341607Y62484D01*
X1342394Y63175D01*
X1343225Y63813D01*
X1344096Y64395D01*
X1345004Y64918D01*
X1345943Y65382D01*
X1346911Y65783D01*
X1347903Y66119D01*
X1348915Y66390D01*
X1349942Y66595D01*
X1350981Y66732D01*
X1352026Y66800D01*
X1353074Y66800D01*
X1354119Y66732D01*
X1355158Y66595D01*
X1356185Y66390D01*
X1357197Y66119D01*
X1358189Y65783D01*
X1359157Y65382D01*
X1360096Y64918D01*
X1361004Y64395D01*
X1361875Y63813D01*
X1362706Y63175D01*
X1363493Y62484D01*
X1364234Y61743D01*
X1364925Y60956D01*
X1365563Y60125D01*
X1366145Y59254D01*
X1366668Y58346D01*
X1367132Y57407D01*
X1367533Y56439D01*
X1367869Y55447D01*
X1368140Y54435D01*
X1368345Y53408D01*
X1368482Y52369D01*
X1368550Y51324D01*
X1368550Y50276D01*
X797050Y977376D02*
X796982Y976331D01*
X796845Y975292D01*
X796640Y974265D01*
X796369Y973253D01*
X796033Y972261D01*
X795632Y971293D01*
X795168Y970354D01*
X794645Y969446D01*
X794063Y968575D01*
X793425Y967744D01*
X792734Y966957D01*
X791993Y966216D01*
X791206Y965525D01*
X790375Y964888D01*
X789504Y964306D01*
X788596Y963782D01*
X787657Y963318D01*
X786689Y962917D01*
X785697Y962581D01*
X784685Y962310D01*
X783658Y962105D01*
X782619Y961969D01*
X781574Y961900D01*
X780526Y961900D01*
X779481Y961969D01*
X778442Y962105D01*
X777415Y962310D01*
X776403Y962581D01*
X775411Y962917D01*
X774443Y963318D01*
X773504Y963782D01*
X772596Y964306D01*
X771725Y964888D01*
X770894Y965525D01*
X770107Y966216D01*
X769366Y966957D01*
X768675Y967744D01*
X768038Y968575D01*
X767456Y969446D01*
X766932Y970354D01*
X766468Y971293D01*
X766067Y972261D01*
X765731Y973253D01*
X765460Y974265D01*
X765255Y975292D01*
X765119Y976331D01*
X765050Y977376D01*
X765050Y978424D01*
X765119Y979469D01*
X765255Y980508D01*
X765460Y981535D01*
X765731Y982547D01*
X766067Y983539D01*
X766468Y984507D01*
X766932Y985446D01*
X767456Y986354D01*
X768038Y987225D01*
X768675Y988056D01*
X769366Y988843D01*
X770107Y989584D01*
X770894Y990275D01*
X771725Y990913D01*
X772596Y991495D01*
X773504Y992018D01*
X774443Y992482D01*
X775411Y992883D01*
X776403Y993219D01*
X777415Y993490D01*
X778442Y993695D01*
X779481Y993832D01*
X780526Y993900D01*
X781574Y993900D01*
X782619Y993832D01*
X783658Y993695D01*
X784685Y993490D01*
X785697Y993219D01*
X786689Y992883D01*
X787657Y992482D01*
X788596Y992018D01*
X789504Y991495D01*
X790375Y990913D01*
X791206Y990275D01*
X791993Y989584D01*
X792734Y988843D01*
X793425Y988056D01*
X794063Y987225D01*
X794645Y986354D01*
X795168Y985446D01*
X795632Y984507D01*
X796033Y983539D01*
X796369Y982547D01*
X796640Y981535D01*
X796845Y980508D01*
X796982Y979469D01*
X797050Y978424D01*
X797050Y977376D01*
X1368550Y977376D02*
X1368482Y976331D01*
X1368345Y975292D01*
X1368140Y974265D01*
X1367869Y973253D01*
X1367533Y972261D01*
X1367132Y971293D01*
X1366668Y970354D01*
X1366145Y969446D01*
X1365563Y968575D01*
X1364925Y967744D01*
X1364234Y966957D01*
X1363493Y966216D01*
X1362706Y965525D01*
X1361875Y964888D01*
X1361004Y964306D01*
X1360096Y963782D01*
X1359157Y963318D01*
X1358189Y962917D01*
X1357197Y962581D01*
X1356185Y962310D01*
X1355158Y962105D01*
X1354119Y961969D01*
X1353074Y961900D01*
X1352026Y961900D01*
X1350981Y961969D01*
X1349942Y962105D01*
X1348915Y962310D01*
X1347903Y962581D01*
X1346911Y962917D01*
X1345943Y963318D01*
X1345004Y963782D01*
X1344096Y964306D01*
X1343225Y964888D01*
X1342394Y965525D01*
X1341607Y966216D01*
X1340866Y966957D01*
X1340175Y967744D01*
X1339538Y968575D01*
X1338956Y969446D01*
X1338432Y970354D01*
X1337968Y971293D01*
X1337567Y972261D01*
X1337231Y973253D01*
X1336960Y974265D01*
X1336755Y975292D01*
X1336619Y976331D01*
X1336550Y977376D01*
X1336550Y978424D01*
X1336619Y979469D01*
X1336755Y980508D01*
X1336960Y981535D01*
X1337231Y982547D01*
X1337567Y983539D01*
X1337968Y984507D01*
X1338432Y985446D01*
X1338956Y986354D01*
X1339538Y987225D01*
X1340175Y988056D01*
X1340866Y988843D01*
X1341607Y989584D01*
X1342394Y990275D01*
X1343225Y990913D01*
X1344096Y991495D01*
X1345004Y992018D01*
X1345943Y992482D01*
X1346911Y992883D01*
X1347903Y993219D01*
X1348915Y993490D01*
X1349942Y993695D01*
X1350981Y993832D01*
X1352026Y993900D01*
X1353074Y993900D01*
X1354119Y993832D01*
X1355158Y993695D01*
X1356185Y993490D01*
X1357197Y993219D01*
X1358189Y992883D01*
X1359157Y992482D01*
X1360096Y992018D01*
X1361004Y991495D01*
X1361875Y990913D01*
X1362706Y990275D01*
X1363493Y989584D01*
X1364234Y988843D01*
X1364925Y988056D01*
X1365563Y987225D01*
X1366145Y986354D01*
X1366668Y985446D01*
X1367132Y984507D01*
X1367533Y983539D01*
X1367869Y982547D01*
X1368140Y981535D01*
X1368345Y980508D01*
X1368482Y979469D01*
X1368550Y978424D01*
X1368550Y977376D01*
M02*
