G04 EAGLE Gerber RS-274X export*
G75*
%MOMM*%
%FSLAX34Y34*%
%LPD*%
%INSoldermask Bottom*%
%IPPOS*%
%AMOC8*
5,1,8,0,0,1.08239X$1,22.5*%
G01*
%ADD10P,1.539592X8X292.500000*%
%ADD11P,1.539592X8X112.500000*%
%ADD12P,1.951982X8X202.500000*%
%ADD13C,1.803400*%
%ADD14P,1.539592X8X202.500000*%
%ADD15C,1.422400*%
%ADD16C,0.857200*%
%ADD17C,1.103200*%
%ADD18P,1.869504X8X202.500000*%
%ADD19C,2.133600*%
%ADD20R,1.727200X1.727200*%
%ADD21C,1.727200*%
%ADD22C,1.422400*%
%ADD23C,3.403200*%
%ADD24C,2.403200*%
%ADD25R,1.703200X1.703200*%
%ADD26C,1.879600*%
%ADD27C,0.959600*%


D10*
X2322830Y363220D03*
X2322830Y337820D03*
D11*
X2526030Y304800D03*
X2526030Y330200D03*
D12*
X2438400Y736600D03*
D13*
X2463800Y736600D03*
D14*
X2324100Y312420D03*
X2298700Y312420D03*
X2324100Y171450D03*
X2298700Y171450D03*
D15*
X2394204Y723900D02*
X2406396Y723900D01*
X2330196Y723900D02*
X2318004Y723900D01*
X2394204Y749300D02*
X2406396Y749300D01*
X2330196Y749300D02*
X2318004Y749300D01*
D16*
X2465460Y795750D03*
X2465460Y804250D03*
X2465460Y812750D03*
X2465460Y821250D03*
X2465460Y829750D03*
X2465460Y838250D03*
X2465460Y846750D03*
X2465460Y855250D03*
X2478960Y855250D03*
X2478960Y846750D03*
X2478960Y838250D03*
X2478960Y829750D03*
X2478960Y821250D03*
X2478960Y812750D03*
X2478960Y804250D03*
X2478960Y795750D03*
D17*
X2479760Y782250D02*
X2470760Y782250D01*
X2470760Y868750D02*
X2479760Y868750D01*
X2504560Y868750D02*
X2513560Y868750D01*
X2513560Y782250D02*
X2504560Y782250D01*
D18*
X2451100Y990600D03*
X2451100Y965200D03*
X2425700Y990600D03*
X2425700Y965200D03*
X2400300Y990600D03*
X2400300Y965200D03*
D11*
X2438400Y596900D03*
X2438400Y698500D03*
D10*
X2489200Y698500D03*
X2489200Y596900D03*
D11*
X2463800Y596900D03*
X2463800Y698500D03*
X2336800Y596900D03*
X2336800Y698500D03*
X2362200Y596900D03*
X2362200Y698500D03*
X2387600Y596900D03*
X2387600Y698500D03*
D19*
X2406650Y838200D03*
X2342650Y838200D03*
X2406650Y889000D03*
X2342650Y889000D03*
D20*
X2349500Y558800D03*
D21*
X2349500Y533400D03*
X2349500Y508000D03*
X2349500Y482600D03*
X2349500Y457200D03*
X2349500Y431800D03*
X2349500Y406400D03*
X2349500Y381000D03*
X2349500Y355600D03*
X2349500Y330200D03*
X2349500Y304800D03*
X2349500Y279400D03*
X2349500Y254000D03*
X2349500Y228600D03*
X2349500Y203200D03*
X2349500Y177800D03*
X2349500Y152400D03*
X2349500Y127000D03*
X2349500Y101600D03*
X2349500Y76200D03*
X2501900Y76200D03*
X2501900Y101600D03*
X2501900Y127000D03*
X2501900Y152400D03*
X2501900Y177800D03*
X2501900Y203200D03*
X2501900Y228600D03*
X2501900Y254000D03*
X2501900Y279400D03*
X2501900Y304800D03*
X2501900Y330200D03*
X2501900Y355600D03*
X2501900Y381000D03*
X2501900Y406400D03*
X2501900Y431800D03*
X2501900Y457200D03*
X2501900Y482600D03*
X2501900Y508000D03*
X2501900Y533400D03*
X2501900Y558800D03*
D22*
X2308860Y218440D03*
X2308860Y266700D03*
D23*
X209550Y50800D03*
X209550Y976630D03*
X2114550Y977900D03*
X2114550Y50800D03*
D24*
X2514600Y990600D03*
X2336800Y990600D03*
X2336800Y38100D03*
X2514600Y38100D03*
D25*
X114300Y939800D03*
X114300Y889000D03*
X114300Y838200D03*
X114300Y749300D03*
X114300Y698500D03*
X114300Y647700D03*
X114300Y558800D03*
X114300Y508000D03*
X114300Y457200D03*
X114300Y368300D03*
X114300Y317500D03*
X114300Y266700D03*
X114300Y177800D03*
X114300Y127000D03*
X114300Y76200D03*
D26*
X160020Y826770D03*
X160020Y902970D03*
X160020Y687070D03*
X160020Y763270D03*
X160020Y496570D03*
X160020Y572770D03*
X160020Y306070D03*
X160020Y382270D03*
X160020Y115570D03*
X160020Y191770D03*
D25*
X304800Y939800D03*
X304800Y889000D03*
X304800Y838200D03*
X304800Y749300D03*
X304800Y698500D03*
X304800Y647700D03*
X304800Y558800D03*
X304800Y508000D03*
X304800Y457200D03*
X304800Y368300D03*
X304800Y317500D03*
X304800Y266700D03*
X304800Y177800D03*
X304800Y127000D03*
X304800Y76200D03*
D26*
X261620Y826770D03*
X261620Y902970D03*
X261620Y687070D03*
X261620Y763270D03*
X261620Y496570D03*
X261620Y572770D03*
X261620Y306070D03*
X261620Y382270D03*
X261620Y115570D03*
X261620Y191770D03*
D25*
X495300Y939800D03*
X495300Y889000D03*
X495300Y838200D03*
X495300Y749300D03*
X495300Y698500D03*
X495300Y647700D03*
X495300Y558800D03*
X495300Y508000D03*
X495300Y457200D03*
X495300Y368300D03*
X495300Y317500D03*
X495300Y266700D03*
X495300Y177800D03*
X495300Y127000D03*
X495300Y76200D03*
D26*
X452120Y826770D03*
X452120Y902970D03*
X452120Y687070D03*
X452120Y763270D03*
X452120Y496570D03*
X452120Y572770D03*
X452120Y306070D03*
X452120Y382270D03*
X452120Y115570D03*
X452120Y191770D03*
D25*
X685800Y939800D03*
X685800Y889000D03*
X685800Y838200D03*
X685800Y749300D03*
X685800Y698500D03*
X685800Y647700D03*
X685800Y558800D03*
X685800Y508000D03*
X685800Y457200D03*
X685800Y368300D03*
X685800Y317500D03*
X685800Y266700D03*
D26*
X642620Y826770D03*
X642620Y902970D03*
X642620Y687070D03*
X642620Y763270D03*
X642620Y496570D03*
X642620Y572770D03*
X642620Y306070D03*
X642620Y382270D03*
D25*
X876300Y939800D03*
X876300Y889000D03*
X876300Y838200D03*
X876300Y749300D03*
X876300Y698500D03*
X876300Y647700D03*
X876300Y558800D03*
X876300Y508000D03*
X876300Y457200D03*
X876300Y368300D03*
X876300Y317500D03*
X876300Y266700D03*
D26*
X833120Y826770D03*
X833120Y902970D03*
X833120Y687070D03*
X833120Y763270D03*
X833120Y496570D03*
X833120Y572770D03*
X833120Y306070D03*
X833120Y382270D03*
D25*
X1066800Y939800D03*
X1066800Y889000D03*
X1066800Y838200D03*
X1066800Y749300D03*
X1066800Y698500D03*
X1066800Y647700D03*
X1066800Y558800D03*
X1066800Y508000D03*
X1066800Y457200D03*
X1066800Y368300D03*
X1066800Y317500D03*
X1066800Y266700D03*
X1066800Y177800D03*
X1066800Y127000D03*
X1066800Y76200D03*
D26*
X1023620Y839470D03*
X1023620Y915670D03*
X1023620Y687070D03*
X1023620Y763270D03*
X1023620Y496570D03*
X1023620Y572770D03*
X1023620Y306070D03*
X1023620Y382270D03*
X1023620Y115570D03*
X1023620Y191770D03*
D25*
X1257300Y939800D03*
X1257300Y889000D03*
X1257300Y838200D03*
X1257300Y749300D03*
X1257300Y698500D03*
X1257300Y647700D03*
X1257300Y558800D03*
X1257300Y508000D03*
X1257300Y457200D03*
X1257300Y368300D03*
X1257300Y317500D03*
X1257300Y266700D03*
D26*
X1214120Y839470D03*
X1214120Y915670D03*
X1214120Y687070D03*
X1214120Y763270D03*
X1214120Y496570D03*
X1214120Y572770D03*
X1214120Y306070D03*
X1214120Y382270D03*
D25*
X1447800Y939800D03*
X1447800Y889000D03*
X1447800Y838200D03*
X1447800Y749300D03*
X1447800Y698500D03*
X1447800Y647700D03*
X1447800Y558800D03*
X1447800Y508000D03*
X1447800Y457200D03*
X1447800Y368300D03*
X1447800Y317500D03*
X1447800Y266700D03*
D26*
X1404620Y838200D03*
X1404620Y914400D03*
X1404620Y687070D03*
X1404620Y763270D03*
X1404620Y496570D03*
X1404620Y572770D03*
X1404620Y306070D03*
X1404620Y382270D03*
D25*
X1638300Y939800D03*
X1638300Y889000D03*
X1638300Y838200D03*
X1638300Y749300D03*
X1638300Y698500D03*
X1638300Y647700D03*
X1638300Y558800D03*
X1638300Y508000D03*
X1638300Y457200D03*
X1638300Y368300D03*
X1638300Y317500D03*
X1638300Y266700D03*
X1638300Y177800D03*
X1638300Y127000D03*
X1638300Y76200D03*
D26*
X1595120Y848360D03*
X1595120Y924560D03*
X1595120Y687070D03*
X1595120Y763270D03*
X1595120Y496570D03*
X1595120Y572770D03*
X1595120Y306070D03*
X1595120Y382270D03*
X1595120Y115570D03*
X1595120Y191770D03*
D25*
X1828800Y939800D03*
X1828800Y889000D03*
X1828800Y838200D03*
X1828800Y749300D03*
X1828800Y698500D03*
X1828800Y647700D03*
X1828800Y558800D03*
X1828800Y508000D03*
X1828800Y457200D03*
X1828800Y368300D03*
X1828800Y317500D03*
X1828800Y266700D03*
X1828800Y177800D03*
X1828800Y127000D03*
X1828800Y76200D03*
D26*
X1785620Y848360D03*
X1785620Y924560D03*
X1785620Y687070D03*
X1785620Y763270D03*
X1785620Y496570D03*
X1785620Y572770D03*
X1785620Y306070D03*
X1785620Y382270D03*
X1785620Y115570D03*
X1785620Y191770D03*
D25*
X2019300Y939800D03*
X2019300Y889000D03*
X2019300Y838200D03*
X2019300Y749300D03*
X2019300Y698500D03*
X2019300Y647700D03*
X2019300Y558800D03*
X2019300Y508000D03*
X2019300Y457200D03*
X2019300Y368300D03*
X2019300Y317500D03*
X2019300Y266700D03*
X2019300Y177800D03*
X2019300Y127000D03*
X2019300Y76200D03*
D26*
X1976120Y852170D03*
X1976120Y928370D03*
X1976120Y687070D03*
X1976120Y763270D03*
X1976120Y496570D03*
X1976120Y572770D03*
X1976120Y306070D03*
X1976120Y382270D03*
X1976120Y115570D03*
X1976120Y191770D03*
D25*
X2209800Y939800D03*
X2209800Y889000D03*
X2209800Y838200D03*
X2209800Y749300D03*
X2209800Y698500D03*
X2209800Y647700D03*
X2209800Y558800D03*
X2209800Y508000D03*
X2209800Y457200D03*
X2209800Y368300D03*
X2209800Y317500D03*
X2209800Y266700D03*
X2209800Y177800D03*
X2209800Y127000D03*
X2209800Y76200D03*
D26*
X2166620Y836930D03*
X2166620Y913130D03*
X2166620Y687070D03*
X2166620Y763270D03*
X2166620Y496570D03*
X2166620Y572770D03*
X2166620Y306070D03*
X2166620Y382270D03*
X2166620Y115570D03*
X2166620Y191770D03*
D25*
X685800Y177800D03*
X685800Y127000D03*
X685800Y76200D03*
X1447800Y177800D03*
X1447800Y127000D03*
X1447800Y76200D03*
D23*
X781050Y50800D03*
X1352550Y50800D03*
X781050Y977900D03*
X1352550Y977900D03*
D27*
X2425700Y533400D03*
X2425700Y508000D03*
X2425700Y482600D03*
X2425700Y457200D03*
X2425700Y88900D03*
X2425700Y558800D03*
X2349500Y609600D03*
X2442210Y821690D03*
X2451100Y829310D03*
X2533650Y419100D03*
X2221230Y872490D03*
X2019300Y866140D03*
X1828800Y859790D03*
M02*
